ISO-10303-21;
HEADER;
/* Generated by software containing ST-Developer
 * from STEP Tools, Inc. (www.steptools.com) 
 */
/* OPTION: using custom renumber hook */

FILE_DESCRIPTION(
/* description */ ('STEP AP214',
'CAx-IF Rec.Pracs.---User Defined Attributes---1.5---2016-08-15'),
/* implementation_level */ '2;1');

FILE_NAME(
/* name */ '6a6fc72c532d47d1cc345db9',
/* time_stamp */ '2026-08-02T22:39:40Z',
/* author */ (''),
/* organization */ (''),
/* preprocessor_version */ 'ST-DEVELOPER v20',
/* originating_system */ 'ONSHAPE BY PTC INC, 1.218',
/* authorisation */ '  ');

FILE_SCHEMA (('AUTOMOTIVE_DESIGN {1 0 10303 214 3 1 1}'));
ENDSEC;

DATA;
#10=PROPERTY_DEFINITION_REPRESENTATION(#14,#12);
#11=PROPERTY_DEFINITION_REPRESENTATION(#15,#13);
#12=REPRESENTATION('',(#16),#819);
#13=REPRESENTATION('',(#17),#819);
#14=PROPERTY_DEFINITION('pmi validation property','',#824);
#15=PROPERTY_DEFINITION('pmi validation property','',#824);
#16=VALUE_REPRESENTATION_ITEM('number of annotations',COUNT_MEASURE(0.));
#17=VALUE_REPRESENTATION_ITEM('number of views',COUNT_MEASURE(0.));
#18=SHAPE_REPRESENTATION_RELATIONSHIP('','',#577,#19);
#19=ADVANCED_BREP_SHAPE_REPRESENTATION('',(#575),#819);
#20=CYLINDRICAL_SURFACE('',#604,0.000208333333333334);
#21=CYLINDRICAL_SURFACE('',#605,0.000208333333333334);
#22=CIRCLE('',#581,0.000208333333333334);
#23=CIRCLE('',#584,0.000208333333333334);
#24=CIRCLE('',#592,0.000208333333333334);
#25=CIRCLE('',#595,0.000208333333333334);
#26=ORIENTED_EDGE('',*,*,#130,.F.);
#27=ORIENTED_EDGE('',*,*,#131,.F.);
#28=ORIENTED_EDGE('',*,*,#132,.F.);
#29=ORIENTED_EDGE('',*,*,#133,.T.);
#30=ORIENTED_EDGE('',*,*,#134,.F.);
#31=ORIENTED_EDGE('',*,*,#135,.F.);
#32=ORIENTED_EDGE('',*,*,#136,.T.);
#33=ORIENTED_EDGE('',*,*,#137,.T.);
#34=ORIENTED_EDGE('',*,*,#138,.T.);
#35=ORIENTED_EDGE('',*,*,#131,.T.);
#36=ORIENTED_EDGE('',*,*,#135,.T.);
#37=ORIENTED_EDGE('',*,*,#139,.T.);
#38=ORIENTED_EDGE('',*,*,#140,.F.);
#39=ORIENTED_EDGE('',*,*,#141,.T.);
#40=ORIENTED_EDGE('',*,*,#140,.T.);
#41=ORIENTED_EDGE('',*,*,#142,.T.);
#42=ORIENTED_EDGE('',*,*,#133,.F.);
#43=ORIENTED_EDGE('',*,*,#143,.F.);
#44=ORIENTED_EDGE('',*,*,#144,.F.);
#45=ORIENTED_EDGE('',*,*,#145,.F.);
#46=ORIENTED_EDGE('',*,*,#142,.F.);
#47=ORIENTED_EDGE('',*,*,#146,.T.);
#48=ORIENTED_EDGE('',*,*,#147,.T.);
#49=ORIENTED_EDGE('',*,*,#148,.F.);
#50=ORIENTED_EDGE('',*,*,#149,.F.);
#51=ORIENTED_EDGE('',*,*,#150,.F.);
#52=ORIENTED_EDGE('',*,*,#151,.T.);
#53=ORIENTED_EDGE('',*,*,#152,.T.);
#54=ORIENTED_EDGE('',*,*,#139,.F.);
#55=ORIENTED_EDGE('',*,*,#153,.T.);
#56=ORIENTED_EDGE('',*,*,#154,.T.);
#57=ORIENTED_EDGE('',*,*,#146,.F.);
#58=ORIENTED_EDGE('',*,*,#153,.F.);
#59=ORIENTED_EDGE('',*,*,#134,.T.);
#60=ORIENTED_EDGE('',*,*,#155,.T.);
#61=ORIENTED_EDGE('',*,*,#156,.F.);
#62=ORIENTED_EDGE('',*,*,#155,.F.);
#63=ORIENTED_EDGE('',*,*,#130,.T.);
#64=ORIENTED_EDGE('',*,*,#148,.T.);
#65=ORIENTED_EDGE('',*,*,#157,.F.);
#66=ORIENTED_EDGE('',*,*,#158,.F.);
#67=ORIENTED_EDGE('',*,*,#136,.F.);
#68=ORIENTED_EDGE('',*,*,#141,.F.);
#69=ORIENTED_EDGE('',*,*,#145,.T.);
#70=ORIENTED_EDGE('',*,*,#159,.T.);
#71=ORIENTED_EDGE('',*,*,#160,.T.);
#72=ORIENTED_EDGE('',*,*,#161,.F.);
#73=ORIENTED_EDGE('',*,*,#162,.T.);
#74=ORIENTED_EDGE('',*,*,#147,.F.);
#75=ORIENTED_EDGE('',*,*,#163,.T.);
#76=ORIENTED_EDGE('',*,*,#161,.T.);
#77=ORIENTED_EDGE('',*,*,#164,.F.);
#78=ORIENTED_EDGE('',*,*,#165,.T.);
#79=ORIENTED_EDGE('',*,*,#166,.F.);
#80=ORIENTED_EDGE('',*,*,#138,.F.);
#81=ORIENTED_EDGE('',*,*,#167,.T.);
#82=ORIENTED_EDGE('',*,*,#143,.T.);
#83=ORIENTED_EDGE('',*,*,#132,.T.);
#84=ORIENTED_EDGE('',*,*,#168,.F.);
#85=ORIENTED_EDGE('',*,*,#156,.T.);
#86=ORIENTED_EDGE('',*,*,#169,.T.);
#87=ORIENTED_EDGE('',*,*,#170,.F.);
#88=ORIENTED_EDGE('',*,*,#171,.T.);
#89=ORIENTED_EDGE('',*,*,#159,.F.);
#90=ORIENTED_EDGE('',*,*,#172,.F.);
#91=ORIENTED_EDGE('',*,*,#170,.T.);
#92=ORIENTED_EDGE('',*,*,#173,.F.);
#93=ORIENTED_EDGE('',*,*,#165,.F.);
#94=ORIENTED_EDGE('',*,*,#154,.F.);
#95=ORIENTED_EDGE('',*,*,#168,.T.);
#96=ORIENTED_EDGE('',*,*,#162,.F.);
#97=ORIENTED_EDGE('',*,*,#163,.F.);
#98=ORIENTED_EDGE('',*,*,#169,.F.);
#99=ORIENTED_EDGE('',*,*,#157,.T.);
#100=ORIENTED_EDGE('',*,*,#166,.T.);
#101=ORIENTED_EDGE('',*,*,#173,.T.);
#102=ORIENTED_EDGE('',*,*,#174,.T.);
#103=ORIENTED_EDGE('',*,*,#175,.T.);
#104=ORIENTED_EDGE('',*,*,#176,.T.);
#105=ORIENTED_EDGE('',*,*,#152,.F.);
#106=ORIENTED_EDGE('',*,*,#151,.F.);
#107=ORIENTED_EDGE('',*,*,#177,.T.);
#108=ORIENTED_EDGE('',*,*,#178,.T.);
#109=ORIENTED_EDGE('',*,*,#174,.F.);
#110=ORIENTED_EDGE('',*,*,#179,.F.);
#111=ORIENTED_EDGE('',*,*,#180,.T.);
#112=ORIENTED_EDGE('',*,*,#149,.T.);
#113=ORIENTED_EDGE('',*,*,#176,.F.);
#114=ORIENTED_EDGE('',*,*,#178,.F.);
#115=ORIENTED_EDGE('',*,*,#181,.T.);
#116=ORIENTED_EDGE('',*,*,#179,.T.);
#117=ORIENTED_EDGE('',*,*,#175,.F.);
#118=ORIENTED_EDGE('',*,*,#177,.F.);
#119=ORIENTED_EDGE('',*,*,#150,.T.);
#120=ORIENTED_EDGE('',*,*,#180,.F.);
#121=ORIENTED_EDGE('',*,*,#181,.F.);
#122=ORIENTED_EDGE('',*,*,#158,.T.);
#123=ORIENTED_EDGE('',*,*,#144,.T.);
#124=ORIENTED_EDGE('',*,*,#167,.F.);
#125=ORIENTED_EDGE('',*,*,#137,.F.);
#126=ORIENTED_EDGE('',*,*,#172,.T.);
#127=ORIENTED_EDGE('',*,*,#164,.T.);
#128=ORIENTED_EDGE('',*,*,#160,.F.);
#129=ORIENTED_EDGE('',*,*,#171,.F.);
#130=EDGE_CURVE('',#182,#183,#214,.T.);
#131=EDGE_CURVE('',#184,#182,#215,.T.);
#132=EDGE_CURVE('',#185,#184,#216,.T.);
#133=EDGE_CURVE('',#185,#183,#217,.T.);
#134=EDGE_CURVE('',#186,#182,#218,.T.);
#135=EDGE_CURVE('',#187,#186,#219,.T.);
#136=EDGE_CURVE('',#187,#188,#220,.T.);
#137=EDGE_CURVE('',#188,#189,#22,.T.);
#138=EDGE_CURVE('',#189,#184,#221,.T.);
#139=EDGE_CURVE('',#186,#190,#222,.T.);
#140=EDGE_CURVE('',#191,#190,#223,.T.);
#141=EDGE_CURVE('',#191,#187,#224,.T.);
#142=EDGE_CURVE('',#190,#183,#225,.T.);
#143=EDGE_CURVE('',#192,#185,#226,.T.);
#144=EDGE_CURVE('',#193,#192,#23,.T.);
#145=EDGE_CURVE('',#191,#193,#227,.T.);
#146=EDGE_CURVE('',#190,#194,#228,.T.);
#147=EDGE_CURVE('',#194,#195,#229,.T.);
#148=EDGE_CURVE('',#183,#195,#230,.T.);
#149=EDGE_CURVE('',#196,#197,#231,.T.);
#150=EDGE_CURVE('',#198,#196,#232,.T.);
#151=EDGE_CURVE('',#198,#199,#233,.T.);
#152=EDGE_CURVE('',#199,#197,#234,.T.);
#153=EDGE_CURVE('',#186,#200,#235,.T.);
#154=EDGE_CURVE('',#200,#194,#236,.T.);
#155=EDGE_CURVE('',#182,#201,#237,.T.);
#156=EDGE_CURVE('',#200,#201,#238,.T.);
#157=EDGE_CURVE('',#201,#195,#239,.T.);
#158=EDGE_CURVE('',#188,#193,#240,.T.);
#159=EDGE_CURVE('',#202,#203,#241,.T.);
#160=EDGE_CURVE('',#203,#204,#242,.T.);
#161=EDGE_CURVE('',#205,#204,#243,.T.);
#162=EDGE_CURVE('',#205,#202,#244,.T.);
#163=EDGE_CURVE('',#194,#205,#245,.T.);
#164=EDGE_CURVE('',#206,#204,#24,.T.);
#165=EDGE_CURVE('',#206,#207,#246,.T.);
#166=EDGE_CURVE('',#195,#207,#247,.T.);
#167=EDGE_CURVE('',#189,#192,#248,.T.);
#168=EDGE_CURVE('',#200,#202,#249,.T.);
#169=EDGE_CURVE('',#201,#208,#250,.T.);
#170=EDGE_CURVE('',#209,#208,#251,.T.);
#171=EDGE_CURVE('',#209,#203,#25,.T.);
#172=EDGE_CURVE('',#209,#206,#252,.T.);
#173=EDGE_CURVE('',#207,#208,#253,.T.);
#174=EDGE_CURVE('',#199,#210,#254,.T.);
#175=EDGE_CURVE('',#210,#211,#255,.T.);
#176=EDGE_CURVE('',#211,#197,#256,.T.);
#177=EDGE_CURVE('',#198,#212,#257,.T.);
#178=EDGE_CURVE('',#212,#210,#258,.T.);
#179=EDGE_CURVE('',#213,#211,#259,.T.);
#180=EDGE_CURVE('',#213,#196,#260,.T.);
#181=EDGE_CURVE('',#212,#213,#261,.T.);
#182=VERTEX_POINT('',#713);
#183=VERTEX_POINT('',#714);
#184=VERTEX_POINT('',#716);
#185=VERTEX_POINT('',#718);
#186=VERTEX_POINT('',#722);
#187=VERTEX_POINT('',#724);
#188=VERTEX_POINT('',#726);
#189=VERTEX_POINT('',#728);
#190=VERTEX_POINT('',#732);
#191=VERTEX_POINT('',#734);
#192=VERTEX_POINT('',#739);
#193=VERTEX_POINT('',#741);
#194=VERTEX_POINT('',#745);
#195=VERTEX_POINT('',#747);
#196=VERTEX_POINT('',#750);
#197=VERTEX_POINT('',#751);
#198=VERTEX_POINT('',#753);
#199=VERTEX_POINT('',#755);
#200=VERTEX_POINT('',#759);
#201=VERTEX_POINT('',#763);
#202=VERTEX_POINT('',#771);
#203=VERTEX_POINT('',#772);
#204=VERTEX_POINT('',#774);
#205=VERTEX_POINT('',#776);
#206=VERTEX_POINT('',#781);
#207=VERTEX_POINT('',#783);
#208=VERTEX_POINT('',#790);
#209=VERTEX_POINT('',#792);
#210=VERTEX_POINT('',#801);
#211=VERTEX_POINT('',#803);
#212=VERTEX_POINT('',#807);
#213=VERTEX_POINT('',#811);
#214=LINE('',#712,#262);
#215=LINE('',#715,#263);
#216=LINE('',#717,#264);
#217=LINE('',#719,#265);
#218=LINE('',#721,#266);
#219=LINE('',#723,#267);
#220=LINE('',#725,#268);
#221=LINE('',#729,#269);
#222=LINE('',#731,#270);
#223=LINE('',#733,#271);
#224=LINE('',#735,#272);
#225=LINE('',#737,#273);
#226=LINE('',#738,#274);
#227=LINE('',#742,#275);
#228=LINE('',#744,#276);
#229=LINE('',#746,#277);
#230=LINE('',#748,#278);
#231=LINE('',#749,#279);
#232=LINE('',#752,#280);
#233=LINE('',#754,#281);
#234=LINE('',#756,#282);
#235=LINE('',#758,#283);
#236=LINE('',#760,#284);
#237=LINE('',#762,#285);
#238=LINE('',#764,#286);
#239=LINE('',#766,#287);
#240=LINE('',#768,#288);
#241=LINE('',#770,#289);
#242=LINE('',#773,#290);
#243=LINE('',#775,#291);
#244=LINE('',#777,#292);
#245=LINE('',#779,#293);
#246=LINE('',#782,#294);
#247=LINE('',#784,#295);
#248=LINE('',#786,#296);
#249=LINE('',#788,#297);
#250=LINE('',#789,#298);
#251=LINE('',#791,#299);
#252=LINE('',#795,#300);
#253=LINE('',#796,#301);
#254=LINE('',#800,#302);
#255=LINE('',#802,#303);
#256=LINE('',#804,#304);
#257=LINE('',#806,#305);
#258=LINE('',#808,#306);
#259=LINE('',#810,#307);
#260=LINE('',#812,#308);
#261=LINE('',#814,#309);
#262=VECTOR('',#610,1.);
#263=VECTOR('',#611,1.);
#264=VECTOR('',#612,1.);
#265=VECTOR('',#613,1.);
#266=VECTOR('',#616,1.);
#267=VECTOR('',#617,1.);
#268=VECTOR('',#618,1.);
#269=VECTOR('',#621,1.);
#270=VECTOR('',#624,1.);
#271=VECTOR('',#625,1.);
#272=VECTOR('',#626,1.);
#273=VECTOR('',#629,1.);
#274=VECTOR('',#630,1.);
#275=VECTOR('',#633,1.);
#276=VECTOR('',#636,1.);
#277=VECTOR('',#637,1.);
#278=VECTOR('',#638,1.);
#279=VECTOR('',#639,1.);
#280=VECTOR('',#640,1.);
#281=VECTOR('',#641,1.);
#282=VECTOR('',#642,1.);
#283=VECTOR('',#645,1.);
#284=VECTOR('',#646,1.);
#285=VECTOR('',#649,1.);
#286=VECTOR('',#650,1.);
#287=VECTOR('',#653,1.);
#288=VECTOR('',#656,1.);
#289=VECTOR('',#659,1.);
#290=VECTOR('',#660,1.);
#291=VECTOR('',#661,1.);
#292=VECTOR('',#662,1.);
#293=VECTOR('',#665,1.);
#294=VECTOR('',#668,1.);
#295=VECTOR('',#669,1.);
#296=VECTOR('',#672,1.);
#297=VECTOR('',#675,1.);
#298=VECTOR('',#676,1.);
#299=VECTOR('',#677,1.);
#300=VECTOR('',#682,1.);
#301=VECTOR('',#683,1.);
#302=VECTOR('',#690,1.);
#303=VECTOR('',#691,1.);
#304=VECTOR('',#692,1.);
#305=VECTOR('',#695,1.);
#306=VECTOR('',#696,1.);
#307=VECTOR('',#699,1.);
#308=VECTOR('',#700,1.);
#309=VECTOR('',#703,1.);
#310=EDGE_LOOP('',(#26,#27,#28,#29));
#311=EDGE_LOOP('',(#30,#31,#32,#33,#34,#35));
#312=EDGE_LOOP('',(#36,#37,#38,#39));
#313=EDGE_LOOP('',(#40,#41,#42,#43,#44,#45));
#314=EDGE_LOOP('',(#46,#47,#48,#49));
#315=EDGE_LOOP('',(#50,#51,#52,#53));
#316=EDGE_LOOP('',(#54,#55,#56,#57));
#317=EDGE_LOOP('',(#58,#59,#60,#61));
#318=EDGE_LOOP('',(#62,#63,#64,#65));
#319=EDGE_LOOP('',(#66,#67,#68,#69));
#320=EDGE_LOOP('',(#70,#71,#72,#73));
#321=EDGE_LOOP('',(#74,#75,#76,#77,#78,#79));
#322=EDGE_LOOP('',(#80,#81,#82,#83));
#323=EDGE_LOOP('',(#84,#85,#86,#87,#88,#89));
#324=EDGE_LOOP('',(#90,#91,#92,#93));
#325=EDGE_LOOP('',(#94,#95,#96,#97));
#326=EDGE_LOOP('',(#98,#99,#100,#101));
#327=EDGE_LOOP('',(#102,#103,#104,#105));
#328=EDGE_LOOP('',(#106,#107,#108,#109));
#329=EDGE_LOOP('',(#110,#111,#112,#113));
#330=EDGE_LOOP('',(#114,#115,#116,#117));
#331=EDGE_LOOP('',(#118,#119,#120,#121));
#332=EDGE_LOOP('',(#122,#123,#124,#125));
#333=EDGE_LOOP('',(#126,#127,#128,#129));
#334=FACE_BOUND('',#310,.T.);
#335=FACE_BOUND('',#311,.T.);
#336=FACE_BOUND('',#312,.T.);
#337=FACE_BOUND('',#313,.T.);
#338=FACE_BOUND('',#314,.T.);
#339=FACE_BOUND('',#315,.T.);
#340=FACE_BOUND('',#316,.T.);
#341=FACE_BOUND('',#317,.T.);
#342=FACE_BOUND('',#318,.T.);
#343=FACE_BOUND('',#319,.T.);
#344=FACE_BOUND('',#320,.T.);
#345=FACE_BOUND('',#321,.T.);
#346=FACE_BOUND('',#322,.T.);
#347=FACE_BOUND('',#323,.T.);
#348=FACE_BOUND('',#324,.T.);
#349=FACE_BOUND('',#325,.T.);
#350=FACE_BOUND('',#326,.T.);
#351=FACE_BOUND('',#327,.T.);
#352=FACE_BOUND('',#328,.T.);
#353=FACE_BOUND('',#329,.T.);
#354=FACE_BOUND('',#330,.T.);
#355=FACE_BOUND('',#331,.T.);
#356=FACE_BOUND('',#332,.T.);
#357=FACE_BOUND('',#333,.T.);
#358=PLANE('',#579);
#359=PLANE('',#580);
#360=PLANE('',#582);
#361=PLANE('',#583);
#362=PLANE('',#585);
#363=PLANE('',#586);
#364=PLANE('',#587);
#365=PLANE('',#588);
#366=PLANE('',#589);
#367=PLANE('',#590);
#368=PLANE('',#591);
#369=PLANE('',#593);
#370=PLANE('',#594);
#371=PLANE('',#596);
#372=PLANE('',#597);
#373=PLANE('',#598);
#374=PLANE('',#599);
#375=PLANE('',#600);
#376=PLANE('',#601);
#377=PLANE('',#602);
#378=PLANE('',#603);
#379=OVER_RIDING_STYLED_ITEM('',(#428),#402,#426);
#380=OVER_RIDING_STYLED_ITEM('',(#429),#403,#426);
#381=OVER_RIDING_STYLED_ITEM('',(#430),#404,#426);
#382=OVER_RIDING_STYLED_ITEM('',(#431),#405,#426);
#383=OVER_RIDING_STYLED_ITEM('',(#432),#406,#426);
#384=OVER_RIDING_STYLED_ITEM('',(#433),#407,#426);
#385=OVER_RIDING_STYLED_ITEM('',(#434),#408,#426);
#386=OVER_RIDING_STYLED_ITEM('',(#435),#409,#426);
#387=OVER_RIDING_STYLED_ITEM('',(#436),#410,#426);
#388=OVER_RIDING_STYLED_ITEM('',(#437),#411,#426);
#389=OVER_RIDING_STYLED_ITEM('',(#438),#412,#426);
#390=OVER_RIDING_STYLED_ITEM('',(#439),#413,#426);
#391=OVER_RIDING_STYLED_ITEM('',(#440),#414,#426);
#392=OVER_RIDING_STYLED_ITEM('',(#441),#415,#426);
#393=OVER_RIDING_STYLED_ITEM('',(#442),#416,#426);
#394=OVER_RIDING_STYLED_ITEM('',(#443),#417,#426);
#395=OVER_RIDING_STYLED_ITEM('',(#444),#418,#426);
#396=OVER_RIDING_STYLED_ITEM('',(#445),#419,#426);
#397=OVER_RIDING_STYLED_ITEM('',(#446),#420,#426);
#398=OVER_RIDING_STYLED_ITEM('',(#447),#421,#426);
#399=OVER_RIDING_STYLED_ITEM('',(#448),#422,#426);
#400=OVER_RIDING_STYLED_ITEM('',(#449),#423,#426);
#401=OVER_RIDING_STYLED_ITEM('',(#450),#424,#426);
#402=ADVANCED_FACE('Face appearance 3',(#334),#358,.F.);
#403=ADVANCED_FACE('Face appearance 3',(#335),#359,.F.);
#404=ADVANCED_FACE('Face appearance 3',(#336),#360,.T.);
#405=ADVANCED_FACE('Face appearance 3',(#337),#361,.T.);
#406=ADVANCED_FACE('Face appearance 1',(#338,#339),#362,.T.);
#407=ADVANCED_FACE('Face appearance 1',(#340),#363,.T.);
#408=ADVANCED_FACE('Face appearance 1',(#341),#364,.F.);
#409=ADVANCED_FACE('Face appearance 1',(#342),#365,.F.);
#410=ADVANCED_FACE('Face appearance 3',(#343),#366,.F.);
#411=ADVANCED_FACE('Face appearance 3',(#344),#367,.T.);
#412=ADVANCED_FACE('Face appearance 3',(#345),#368,.T.);
#413=ADVANCED_FACE('Face appearance 3',(#346),#369,.F.);
#414=ADVANCED_FACE('Face appearance 3',(#347),#370,.F.);
#415=ADVANCED_FACE('Face appearance 3',(#348),#371,.T.);
#416=ADVANCED_FACE('Face appearance 3',(#349),#372,.T.);
#417=ADVANCED_FACE('Face appearance 3',(#350),#373,.F.);
#418=ADVANCED_FACE('Face appearance 2',(#351),#374,.F.);
#419=ADVANCED_FACE('Face appearance 2',(#352),#375,.T.);
#420=ADVANCED_FACE('Face appearance 2',(#353),#376,.T.);
#421=ADVANCED_FACE('Face appearance 2',(#354),#377,.T.);
#422=ADVANCED_FACE('Face appearance 2',(#355),#378,.T.);
#423=ADVANCED_FACE('Face appearance 3',(#356),#20,.F.);
#424=ADVANCED_FACE('Face appearance 3',(#357),#21,.F.);
#425=CLOSED_SHELL('',(#402,#403,#404,#405,#406,#407,#408,#409,#410,#411,
#412,#413,#414,#415,#416,#417,#418,#419,#420,#421,#422,#423,#424));
#426=STYLED_ITEM('',(#427),#575);
#427=PRESENTATION_STYLE_ASSIGNMENT((#451));
#428=PRESENTATION_STYLE_ASSIGNMENT((#452));
#429=PRESENTATION_STYLE_ASSIGNMENT((#453));
#430=PRESENTATION_STYLE_ASSIGNMENT((#454));
#431=PRESENTATION_STYLE_ASSIGNMENT((#455));
#432=PRESENTATION_STYLE_ASSIGNMENT((#456));
#433=PRESENTATION_STYLE_ASSIGNMENT((#457));
#434=PRESENTATION_STYLE_ASSIGNMENT((#458));
#435=PRESENTATION_STYLE_ASSIGNMENT((#459));
#436=PRESENTATION_STYLE_ASSIGNMENT((#460));
#437=PRESENTATION_STYLE_ASSIGNMENT((#461));
#438=PRESENTATION_STYLE_ASSIGNMENT((#462));
#439=PRESENTATION_STYLE_ASSIGNMENT((#463));
#440=PRESENTATION_STYLE_ASSIGNMENT((#464));
#441=PRESENTATION_STYLE_ASSIGNMENT((#465));
#442=PRESENTATION_STYLE_ASSIGNMENT((#466));
#443=PRESENTATION_STYLE_ASSIGNMENT((#467));
#444=PRESENTATION_STYLE_ASSIGNMENT((#468));
#445=PRESENTATION_STYLE_ASSIGNMENT((#469));
#446=PRESENTATION_STYLE_ASSIGNMENT((#470));
#447=PRESENTATION_STYLE_ASSIGNMENT((#471));
#448=PRESENTATION_STYLE_ASSIGNMENT((#472));
#449=PRESENTATION_STYLE_ASSIGNMENT((#473));
#450=PRESENTATION_STYLE_ASSIGNMENT((#474));
#451=SURFACE_STYLE_USAGE(.BOTH.,#475);
#452=SURFACE_STYLE_USAGE(.BOTH.,#476);
#453=SURFACE_STYLE_USAGE(.BOTH.,#477);
#454=SURFACE_STYLE_USAGE(.BOTH.,#478);
#455=SURFACE_STYLE_USAGE(.BOTH.,#479);
#456=SURFACE_STYLE_USAGE(.BOTH.,#480);
#457=SURFACE_STYLE_USAGE(.BOTH.,#481);
#458=SURFACE_STYLE_USAGE(.BOTH.,#482);
#459=SURFACE_STYLE_USAGE(.BOTH.,#483);
#460=SURFACE_STYLE_USAGE(.BOTH.,#484);
#461=SURFACE_STYLE_USAGE(.BOTH.,#485);
#462=SURFACE_STYLE_USAGE(.BOTH.,#486);
#463=SURFACE_STYLE_USAGE(.BOTH.,#487);
#464=SURFACE_STYLE_USAGE(.BOTH.,#488);
#465=SURFACE_STYLE_USAGE(.BOTH.,#489);
#466=SURFACE_STYLE_USAGE(.BOTH.,#490);
#467=SURFACE_STYLE_USAGE(.BOTH.,#491);
#468=SURFACE_STYLE_USAGE(.BOTH.,#492);
#469=SURFACE_STYLE_USAGE(.BOTH.,#493);
#470=SURFACE_STYLE_USAGE(.BOTH.,#494);
#471=SURFACE_STYLE_USAGE(.BOTH.,#495);
#472=SURFACE_STYLE_USAGE(.BOTH.,#496);
#473=SURFACE_STYLE_USAGE(.BOTH.,#497);
#474=SURFACE_STYLE_USAGE(.BOTH.,#498);
#475=SURFACE_SIDE_STYLE('',(#499));
#476=SURFACE_SIDE_STYLE('',(#500));
#477=SURFACE_SIDE_STYLE('',(#501));
#478=SURFACE_SIDE_STYLE('',(#502));
#479=SURFACE_SIDE_STYLE('',(#503));
#480=SURFACE_SIDE_STYLE('',(#504));
#481=SURFACE_SIDE_STYLE('',(#505));
#482=SURFACE_SIDE_STYLE('',(#506));
#483=SURFACE_SIDE_STYLE('',(#507));
#484=SURFACE_SIDE_STYLE('',(#508));
#485=SURFACE_SIDE_STYLE('',(#509));
#486=SURFACE_SIDE_STYLE('',(#510));
#487=SURFACE_SIDE_STYLE('',(#511));
#488=SURFACE_SIDE_STYLE('',(#512));
#489=SURFACE_SIDE_STYLE('',(#513));
#490=SURFACE_SIDE_STYLE('',(#514));
#491=SURFACE_SIDE_STYLE('',(#515));
#492=SURFACE_SIDE_STYLE('',(#516));
#493=SURFACE_SIDE_STYLE('',(#517));
#494=SURFACE_SIDE_STYLE('',(#518));
#495=SURFACE_SIDE_STYLE('',(#519));
#496=SURFACE_SIDE_STYLE('',(#520));
#497=SURFACE_SIDE_STYLE('',(#521));
#498=SURFACE_SIDE_STYLE('',(#522));
#499=SURFACE_STYLE_FILL_AREA(#523);
#500=SURFACE_STYLE_FILL_AREA(#524);
#501=SURFACE_STYLE_FILL_AREA(#525);
#502=SURFACE_STYLE_FILL_AREA(#526);
#503=SURFACE_STYLE_FILL_AREA(#527);
#504=SURFACE_STYLE_FILL_AREA(#528);
#505=SURFACE_STYLE_FILL_AREA(#529);
#506=SURFACE_STYLE_FILL_AREA(#530);
#507=SURFACE_STYLE_FILL_AREA(#531);
#508=SURFACE_STYLE_FILL_AREA(#532);
#509=SURFACE_STYLE_FILL_AREA(#533);
#510=SURFACE_STYLE_FILL_AREA(#534);
#511=SURFACE_STYLE_FILL_AREA(#535);
#512=SURFACE_STYLE_FILL_AREA(#536);
#513=SURFACE_STYLE_FILL_AREA(#537);
#514=SURFACE_STYLE_FILL_AREA(#538);
#515=SURFACE_STYLE_FILL_AREA(#539);
#516=SURFACE_STYLE_FILL_AREA(#540);
#517=SURFACE_STYLE_FILL_AREA(#541);
#518=SURFACE_STYLE_FILL_AREA(#542);
#519=SURFACE_STYLE_FILL_AREA(#543);
#520=SURFACE_STYLE_FILL_AREA(#544);
#521=SURFACE_STYLE_FILL_AREA(#545);
#522=SURFACE_STYLE_FILL_AREA(#546);
#523=FILL_AREA_STYLE('',(#547));
#524=FILL_AREA_STYLE('',(#548));
#525=FILL_AREA_STYLE('',(#549));
#526=FILL_AREA_STYLE('',(#550));
#527=FILL_AREA_STYLE('',(#551));
#528=FILL_AREA_STYLE('',(#552));
#529=FILL_AREA_STYLE('',(#553));
#530=FILL_AREA_STYLE('',(#554));
#531=FILL_AREA_STYLE('',(#555));
#532=FILL_AREA_STYLE('',(#556));
#533=FILL_AREA_STYLE('',(#557));
#534=FILL_AREA_STYLE('',(#558));
#535=FILL_AREA_STYLE('',(#559));
#536=FILL_AREA_STYLE('',(#560));
#537=FILL_AREA_STYLE('',(#561));
#538=FILL_AREA_STYLE('',(#562));
#539=FILL_AREA_STYLE('',(#563));
#540=FILL_AREA_STYLE('',(#564));
#541=FILL_AREA_STYLE('',(#565));
#542=FILL_AREA_STYLE('',(#566));
#543=FILL_AREA_STYLE('',(#567));
#544=FILL_AREA_STYLE('',(#568));
#545=FILL_AREA_STYLE('',(#569));
#546=FILL_AREA_STYLE('',(#570));
#547=FILL_AREA_STYLE_COLOUR('',#571);
#548=FILL_AREA_STYLE_COLOUR('',#572);
#549=FILL_AREA_STYLE_COLOUR('',#572);
#550=FILL_AREA_STYLE_COLOUR('',#572);
#551=FILL_AREA_STYLE_COLOUR('',#572);
#552=FILL_AREA_STYLE_COLOUR('',#573);
#553=FILL_AREA_STYLE_COLOUR('',#573);
#554=FILL_AREA_STYLE_COLOUR('',#573);
#555=FILL_AREA_STYLE_COLOUR('',#573);
#556=FILL_AREA_STYLE_COLOUR('',#572);
#557=FILL_AREA_STYLE_COLOUR('',#572);
#558=FILL_AREA_STYLE_COLOUR('',#572);
#559=FILL_AREA_STYLE_COLOUR('',#572);
#560=FILL_AREA_STYLE_COLOUR('',#572);
#561=FILL_AREA_STYLE_COLOUR('',#572);
#562=FILL_AREA_STYLE_COLOUR('',#572);
#563=FILL_AREA_STYLE_COLOUR('',#572);
#564=FILL_AREA_STYLE_COLOUR('',#574);
#565=FILL_AREA_STYLE_COLOUR('',#574);
#566=FILL_AREA_STYLE_COLOUR('',#574);
#567=FILL_AREA_STYLE_COLOUR('',#574);
#568=FILL_AREA_STYLE_COLOUR('',#574);
#569=FILL_AREA_STYLE_COLOUR('',#572);
#570=FILL_AREA_STYLE_COLOUR('',#572);
#571=COLOUR_RGB('',0.615686274509804,0.811764705882353,0.929411764705882);
#572=COLOUR_RGB('',0.650980392156863,0.486274509803922,0.0196078431372549);
#573=COLOUR_RGB('',0.901960784313726,0.901960784313726,0.901960784313726);
#574=COLOUR_RGB('',0.941176470588235,0.874509803921569,0.67843137254902);
#575=MANIFOLD_SOLID_BREP('Amicc-A-SP151W1D-C04-3A',#425);
#576=SHAPE_DEFINITION_REPRESENTATION(#824,#577);
#577=SHAPE_REPRESENTATION('Amicc-A-SP151W1D-C04-3A',(#578),#819);
#578=AXIS2_PLACEMENT_3D('',#710,#606,#607);
#579=AXIS2_PLACEMENT_3D('',#711,#608,#609);
#580=AXIS2_PLACEMENT_3D('',#720,#614,#615);
#581=AXIS2_PLACEMENT_3D('',#727,#619,#620);
#582=AXIS2_PLACEMENT_3D('',#730,#622,#623);
#583=AXIS2_PLACEMENT_3D('',#736,#627,#628);
#584=AXIS2_PLACEMENT_3D('',#740,#631,#632);
#585=AXIS2_PLACEMENT_3D('',#743,#634,#635);
#586=AXIS2_PLACEMENT_3D('',#757,#643,#644);
#587=AXIS2_PLACEMENT_3D('',#761,#647,#648);
#588=AXIS2_PLACEMENT_3D('',#765,#651,#652);
#589=AXIS2_PLACEMENT_3D('',#767,#654,#655);
#590=AXIS2_PLACEMENT_3D('',#769,#657,#658);
#591=AXIS2_PLACEMENT_3D('',#778,#663,#664);
#592=AXIS2_PLACEMENT_3D('',#780,#666,#667);
#593=AXIS2_PLACEMENT_3D('',#785,#670,#671);
#594=AXIS2_PLACEMENT_3D('',#787,#673,#674);
#595=AXIS2_PLACEMENT_3D('',#793,#678,#679);
#596=AXIS2_PLACEMENT_3D('',#794,#680,#681);
#597=AXIS2_PLACEMENT_3D('',#797,#684,#685);
#598=AXIS2_PLACEMENT_3D('',#798,#686,#687);
#599=AXIS2_PLACEMENT_3D('',#799,#688,#689);
#600=AXIS2_PLACEMENT_3D('',#805,#693,#694);
#601=AXIS2_PLACEMENT_3D('',#809,#697,#698);
#602=AXIS2_PLACEMENT_3D('',#813,#701,#702);
#603=AXIS2_PLACEMENT_3D('',#815,#704,#705);
#604=AXIS2_PLACEMENT_3D('',#816,#706,#707);
#605=AXIS2_PLACEMENT_3D('',#817,#708,#709);
#606=DIRECTION('',(0.,0.,1.));
#607=DIRECTION('',(1.,0.,0.));
#608=DIRECTION('',(0.,-1.,0.));
#609=DIRECTION('',(1.,0.,0.));
#610=DIRECTION('',(0.,0.,1.));
#611=DIRECTION('',(1.,0.,0.));
#612=DIRECTION('',(0.,0.,-1.));
#613=DIRECTION('',(1.,0.,0.));
#614=DIRECTION('',(0.,0.,1.));
#615=DIRECTION('',(1.,0.,0.));
#616=DIRECTION('',(0.,1.,0.));
#617=DIRECTION('',(1.,0.,0.));
#618=DIRECTION('',(0.,1.,0.));
#619=DIRECTION('',(0.,0.,1.));
#620=DIRECTION('',(1.,0.,0.));
#621=DIRECTION('',(0.,1.,0.));
#622=DIRECTION('',(0.,-1.,0.));
#623=DIRECTION('',(1.,0.,0.));
#624=DIRECTION('',(0.,0.,1.));
#625=DIRECTION('',(1.,0.,0.));
#626=DIRECTION('',(0.,0.,-1.));
#627=DIRECTION('',(0.,0.,1.));
#628=DIRECTION('',(1.,0.,0.));
#629=DIRECTION('',(0.,1.,0.));
#630=DIRECTION('',(0.,1.,0.));
#631=DIRECTION('',(0.,0.,1.));
#632=DIRECTION('',(1.,0.,0.));
#633=DIRECTION('',(0.,1.,0.));
#634=DIRECTION('',(0.,0.,1.));
#635=DIRECTION('',(1.,0.,0.));
#636=DIRECTION('',(1.,0.,0.));
#637=DIRECTION('',(0.,1.,0.));
#638=DIRECTION('',(1.,0.,0.));
#639=DIRECTION('',(0.,1.,0.));
#640=DIRECTION('',(1.,0.,0.));
#641=DIRECTION('',(0.,1.,0.));
#642=DIRECTION('',(1.,0.,0.));
#643=DIRECTION('',(0.,-1.,0.));
#644=DIRECTION('',(1.,0.,0.));
#645=DIRECTION('',(1.,0.,0.));
#646=DIRECTION('',(0.,0.,1.));
#647=DIRECTION('',(0.,0.,1.));
#648=DIRECTION('',(1.,0.,0.));
#649=DIRECTION('',(1.,0.,0.));
#650=DIRECTION('',(0.,1.,0.));
#651=DIRECTION('',(0.,-1.,0.));
#652=DIRECTION('',(1.,0.,0.));
#653=DIRECTION('',(0.,0.,1.));
#654=DIRECTION('',(1.,0.,0.));
#655=DIRECTION('',(0.,0.,-1.));
#656=DIRECTION('',(0.,0.,1.));
#657=DIRECTION('',(1.,0.,0.));
#658=DIRECTION('',(0.,0.,-1.));
#659=DIRECTION('',(0.,1.,0.));
#660=DIRECTION('',(0.,0.,1.));
#661=DIRECTION('',(0.,1.,0.));
#662=DIRECTION('',(0.,0.,-1.));
#663=DIRECTION('',(0.,0.,1.));
#664=DIRECTION('',(1.,0.,0.));
#665=DIRECTION('',(1.,0.,0.));
#666=DIRECTION('',(0.,0.,1.));
#667=DIRECTION('',(1.,0.,0.));
#668=DIRECTION('',(0.,1.,0.));
#669=DIRECTION('',(1.,0.,0.));
#670=DIRECTION('',(1.,0.,0.));
#671=DIRECTION('',(0.,0.,-1.));
#672=DIRECTION('',(0.,0.,1.));
#673=DIRECTION('',(0.,0.,1.));
#674=DIRECTION('',(1.,0.,0.));
#675=DIRECTION('',(1.,0.,0.));
#676=DIRECTION('',(1.,0.,0.));
#677=DIRECTION('',(0.,1.,0.));
#678=DIRECTION('',(0.,0.,1.));
#679=DIRECTION('',(1.,0.,0.));
#680=DIRECTION('',(1.,0.,0.));
#681=DIRECTION('',(0.,0.,-1.));
#682=DIRECTION('',(0.,0.,1.));
#683=DIRECTION('',(0.,0.,-1.));
#684=DIRECTION('',(0.,-1.,0.));
#685=DIRECTION('',(1.,0.,0.));
#686=DIRECTION('',(0.,-1.,0.));
#687=DIRECTION('',(1.,0.,0.));
#688=DIRECTION('',(0.,-1.,0.));
#689=DIRECTION('',(1.,0.,0.));
#690=DIRECTION('',(0.0803841899203102,0.,0.996763955011845));
#691=DIRECTION('',(1.,0.,0.));
#692=DIRECTION('',(0.0803841899203104,0.,-0.996763955011845));
#693=DIRECTION('',(-0.996763955011845,0.,0.0803841899203101));
#694=DIRECTION('',(0.0803841899203102,0.,0.996763955011845));
#695=DIRECTION('',(0.0803841899203102,0.,0.996763955011845));
#696=DIRECTION('',(0.,1.,0.));
#697=DIRECTION('',(0.996763955011845,0.,0.0803841899203104));
#698=DIRECTION('',(0.0803841899203104,0.,-0.996763955011845));
#699=DIRECTION('',(0.,1.,0.));
#700=DIRECTION('',(0.0803841899203104,0.,-0.996763955011845));
#701=DIRECTION('',(0.,0.,1.));
#702=DIRECTION('',(1.,0.,0.));
#703=DIRECTION('',(1.,0.,0.));
#704=DIRECTION('',(0.,-1.,0.));
#705=DIRECTION('',(1.,0.,0.));
#706=DIRECTION('',(0.,0.,1.));
#707=DIRECTION('',(1.,0.,0.));
#708=DIRECTION('',(0.,0.,1.));
#709=DIRECTION('',(1.,0.,0.));
#710=CARTESIAN_POINT('',(0.,0.,0.));
#711=CARTESIAN_POINT('',(0.,0.000625,7.E-5));
#712=CARTESIAN_POINT('',(-0.0009,0.000625,7.E-5));
#713=CARTESIAN_POINT('',(-0.0009,0.000625,-0.00048));
#714=CARTESIAN_POINT('',(-0.0009,0.000625,0.));
#715=CARTESIAN_POINT('',(0.,0.000625,-0.00048));
#716=CARTESIAN_POINT('',(-0.0016,0.000625,-0.00048));
#717=CARTESIAN_POINT('',(-0.0016,0.000625,-0.00024));
#718=CARTESIAN_POINT('',(-0.0016,0.000625,0.));
#719=CARTESIAN_POINT('',(0.001175,0.000625,0.));
#720=CARTESIAN_POINT('',(0.,-0.000625,-0.00048));
#721=CARTESIAN_POINT('',(-0.0009,-0.000625,-0.00048));
#722=CARTESIAN_POINT('',(-0.0009,-0.000625,-0.00048));
#723=CARTESIAN_POINT('',(0.,-0.000625,-0.00048));
#724=CARTESIAN_POINT('',(-0.0016,-0.000625,-0.00048));
#725=CARTESIAN_POINT('',(-0.0016,-0.000625,-0.00048));
#726=CARTESIAN_POINT('',(-0.0016,-0.000208333333333334,-0.00048));
#727=CARTESIAN_POINT('',(-0.0016,0.,-0.00048));
#728=CARTESIAN_POINT('',(-0.0016,0.000208333333333334,-0.00048));
#729=CARTESIAN_POINT('',(-0.0016,-0.000625,-0.00048));
#730=CARTESIAN_POINT('',(0.,-0.000625,7.E-5));
#731=CARTESIAN_POINT('',(-0.0009,-0.000625,7.E-5));
#732=CARTESIAN_POINT('',(-0.0009,-0.000625,0.));
#733=CARTESIAN_POINT('',(0.001175,-0.000625,0.));
#734=CARTESIAN_POINT('',(-0.0016,-0.000625,0.));
#735=CARTESIAN_POINT('',(-0.0016,-0.000625,-0.00024));
#736=CARTESIAN_POINT('',(0.001175,-0.000625,0.));
#737=CARTESIAN_POINT('',(-0.0009,-0.000625,0.));
#738=CARTESIAN_POINT('',(-0.0016,-0.000625,0.));
#739=CARTESIAN_POINT('',(-0.0016,0.000208333333333334,0.));
#740=CARTESIAN_POINT('',(-0.0016,0.,0.));
#741=CARTESIAN_POINT('',(-0.0016,-0.000208333333333334,0.));
#742=CARTESIAN_POINT('',(-0.0016,-0.000625,0.));
#743=CARTESIAN_POINT('',(0.001175,-0.000625,0.));
#744=CARTESIAN_POINT('',(0.001175,-0.000625,0.));
#745=CARTESIAN_POINT('',(0.0009,-0.000625,0.));
#746=CARTESIAN_POINT('',(0.0009,-0.000625,0.));
#747=CARTESIAN_POINT('',(0.0009,0.000625,0.));
#748=CARTESIAN_POINT('',(0.001175,0.000625,0.));
#749=CARTESIAN_POINT('',(0.00075,-0.259767621135332,-1.62630325872826E-19));
#750=CARTESIAN_POINT('',(0.00075,-0.000574999999999987,-1.62630325872826E-19));
#751=CARTESIAN_POINT('',(0.00075,0.000574999999999987,-1.62630325872826E-19));
#752=CARTESIAN_POINT('',(3.25260651745652E-19,-0.000574999999999987,0.));
#753=CARTESIAN_POINT('',(-0.00075,-0.000574999999999987,8.67361737988404E-19));
#754=CARTESIAN_POINT('',(-0.00075,-0.259767621135332,8.67361737988404E-19));
#755=CARTESIAN_POINT('',(-0.00075,0.000574999999999987,8.67361737988404E-19));
#756=CARTESIAN_POINT('',(3.25260651745652E-19,0.000574999999999987,0.));
#757=CARTESIAN_POINT('',(0.,-0.000625,7.E-5));
#758=CARTESIAN_POINT('',(0.,-0.000625,-0.00048));
#759=CARTESIAN_POINT('',(0.0009,-0.000625,-0.00048));
#760=CARTESIAN_POINT('',(0.0009,-0.000625,7.E-5));
#761=CARTESIAN_POINT('',(0.,-0.000625,-0.00048));
#762=CARTESIAN_POINT('',(0.,0.000625,-0.00048));
#763=CARTESIAN_POINT('',(0.0009,0.000625,-0.00048));
#764=CARTESIAN_POINT('',(0.0009,-0.000625,-0.00048));
#765=CARTESIAN_POINT('',(0.,0.000625,7.E-5));
#766=CARTESIAN_POINT('',(0.0009,0.000625,7.E-5));
#767=CARTESIAN_POINT('',(-0.0016,-0.000625,-0.00024));
#768=CARTESIAN_POINT('',(-0.0016,-0.000208333333333334,-0.025));
#769=CARTESIAN_POINT('',(0.0016,-0.000625,-0.00024));
#770=CARTESIAN_POINT('',(0.0016,-0.000625,-0.00048));
#771=CARTESIAN_POINT('',(0.0016,-0.000625,-0.00048));
#772=CARTESIAN_POINT('',(0.0016,-0.000208333333333334,-0.00048));
#773=CARTESIAN_POINT('',(0.0016,-0.000208333333333334,-0.025));
#774=CARTESIAN_POINT('',(0.0016,-0.000208333333333334,0.));
#775=CARTESIAN_POINT('',(0.0016,-0.000625,0.));
#776=CARTESIAN_POINT('',(0.0016,-0.000625,0.));
#777=CARTESIAN_POINT('',(0.0016,-0.000625,-0.00024));
#778=CARTESIAN_POINT('',(0.001175,-0.000625,0.));
#779=CARTESIAN_POINT('',(0.001175,-0.000625,0.));
#780=CARTESIAN_POINT('',(0.0016,2.71050543121376E-20,0.));
#781=CARTESIAN_POINT('',(0.0016,0.000208333333333334,0.));
#782=CARTESIAN_POINT('',(0.0016,-0.000625,0.));
#783=CARTESIAN_POINT('',(0.0016,0.000625,0.));
#784=CARTESIAN_POINT('',(0.001175,0.000625,0.));
#785=CARTESIAN_POINT('',(-0.0016,-0.000625,-0.00024));
#786=CARTESIAN_POINT('',(-0.0016,0.000208333333333334,-0.025));
#787=CARTESIAN_POINT('',(0.,-0.000625,-0.00048));
#788=CARTESIAN_POINT('',(0.,-0.000625,-0.00048));
#789=CARTESIAN_POINT('',(0.,0.000625,-0.00048));
#790=CARTESIAN_POINT('',(0.0016,0.000625,-0.00048));
#791=CARTESIAN_POINT('',(0.0016,-0.000625,-0.00048));
#792=CARTESIAN_POINT('',(0.0016,0.000208333333333334,-0.00048));
#793=CARTESIAN_POINT('',(0.0016,2.71050543121376E-20,-0.00048));
#794=CARTESIAN_POINT('',(0.0016,-0.000625,-0.00024));
#795=CARTESIAN_POINT('',(0.0016,0.000208333333333334,-0.025));
#796=CARTESIAN_POINT('',(0.0016,0.000625,-0.00024));
#797=CARTESIAN_POINT('',(0.,-0.000625,7.E-5));
#798=CARTESIAN_POINT('',(0.,0.000625,7.E-5));
#799=CARTESIAN_POINT('',(0.,0.000575,7.E-5));
#800=CARTESIAN_POINT('',(-0.000725,0.000574999999999987,0.00031));
#801=CARTESIAN_POINT('',(-0.0007,0.000574999999999987,0.00062));
#802=CARTESIAN_POINT('',(3.25260651745652E-19,0.000574999999999987,0.00062));
#803=CARTESIAN_POINT('',(0.0007,0.000574999999999987,0.00062));
#804=CARTESIAN_POINT('',(0.000725,0.000574999999999987,0.00031));
#805=CARTESIAN_POINT('',(-0.000725,-0.259767621135332,0.00031));
#806=CARTESIAN_POINT('',(-0.000725,-0.000574999999999987,0.00031));
#807=CARTESIAN_POINT('',(-0.0007,-0.000574999999999987,0.00062));
#808=CARTESIAN_POINT('',(-0.0007,-0.259767621135332,0.00062));
#809=CARTESIAN_POINT('',(0.000725,-0.259767621135332,0.00031));
#810=CARTESIAN_POINT('',(0.0007,-0.259767621135332,0.00062));
#811=CARTESIAN_POINT('',(0.0007,-0.000574999999999987,0.00062));
#812=CARTESIAN_POINT('',(0.000725,-0.000574999999999987,0.00031));
#813=CARTESIAN_POINT('',(3.25260651745652E-19,-0.259767621135332,0.00062));
#814=CARTESIAN_POINT('',(3.25260651745652E-19,-0.000574999999999987,0.00062));
#815=CARTESIAN_POINT('',(0.,-0.000575,7.E-5));
#816=CARTESIAN_POINT('',(-0.0016,0.,-0.025));
#817=CARTESIAN_POINT('',(0.0016,2.71050543121376E-20,-0.025));
#818=MECHANICAL_DESIGN_GEOMETRIC_PRESENTATION_REPRESENTATION('',(#426,#379,
#380,#381,#382,#383,#384,#385,#386,#387,#388,#389,#390,#391,#392,#393,#394,
#395,#396,#397,#398,#399,#400,#401),#819);
#819=(
GEOMETRIC_REPRESENTATION_CONTEXT(3)
GLOBAL_UNCERTAINTY_ASSIGNED_CONTEXT((#820))
GLOBAL_UNIT_ASSIGNED_CONTEXT((#823,#822,#821))
REPRESENTATION_CONTEXT('Amicc-A-SP151W1D-C04-3A',
'TOP_LEVEL_ASSEMBLY_PART')
);
#820=UNCERTAINTY_MEASURE_WITH_UNIT(LENGTH_MEASURE(1.E-8),#823,
'DISTANCE_ACCURACY_VALUE','Maximum Tolerance applied to model');
#821=(
NAMED_UNIT(*)
SI_UNIT($,.STERADIAN.)
SOLID_ANGLE_UNIT()
);
#822=(
NAMED_UNIT(*)
PLANE_ANGLE_UNIT()
SI_UNIT($,.RADIAN.)
);
#823=(
LENGTH_UNIT()
NAMED_UNIT(*)
SI_UNIT($,.METRE.)
);
#824=PRODUCT_DEFINITION_SHAPE('','',#825);
#825=PRODUCT_DEFINITION('','',#827,#826);
#826=PRODUCT_DEFINITION_CONTEXT('',#833,'design');
#827=PRODUCT_DEFINITION_FORMATION_WITH_SPECIFIED_SOURCE('','',#829,
 .NOT_KNOWN.);
#828=PRODUCT_RELATED_PRODUCT_CATEGORY('','',(#829));
#829=PRODUCT('Amicc-A-SP151W1D-C04-3A','Amicc-A-SP151W1D-C04-3A',
'Amicc-A-SP151W1D-C04-3A',(#831));
#830=PRODUCT_CATEGORY('','');
#831=PRODUCT_CONTEXT('',#833,'mechanical');
#832=APPLICATION_PROTOCOL_DEFINITION('international standard',
'automotive_design',2010,#833);
#833=APPLICATION_CONTEXT(
'core data for automotive mechanical design processes');
ENDSEC;
END-ISO-10303-21;
